<?xml version="1.0" standalone="no"?>
<!DOCTYPE svg PUBLIC "-//W3C//DTD SVG 20010904//EN"
 "http://www.w3.org/TR/2001/REC-SVG-20010904/DTD/svg10.dtd">
<svg version="1.0" xmlns="http://www.w3.org/2000/svg"
 width="200.000000pt" height="200.000000pt" viewBox="0 0 200.000000 200.000000"
 preserveAspectRatio="xMidYMid meet">
<metadata>
Created by potrace 1.14, written by Peter Selinger 2001-2017
</metadata>
<g transform="translate(0.000000,200.000000) scale(0.100000,-0.100000)"
fill="#000000" stroke="none">
<path d="M0 1000 l0 -1000 1000 0 1000 0 0 1000 0 1000 -1000 0 -1000 0 0
-1000z m1438 543 c3 -22 7 -23 123 -23 l119 0 0 -200 c0 -193 1 -200 20 -200
19 0 20 -7 20 -140 l0 -140 -117 0 c-77 0 -113 -4 -103 -10 8 -5 65 -24 126
-41 l112 -33 -20 -50 c-11 -28 -31 -98 -43 -155 -13 -57 -27 -106 -30 -109
-15 -15 -172 79 -330 196 l-30 22 -62 -58 c-67 -64 -266 -174 -281 -157 -5 6
-16 39 -26 73 -9 35 -29 87 -44 115 l-27 52 -3 -82 -3 -83 -124 0 -125 0 0
-25 0 -25 -115 0 -115 0 0 525 0 525 240 0 240 0 0 -375 c0 -303 3 -375 13
-375 37 0 136 24 176 43 l46 22 -110 5 -110 5 -3 138 c-2 132 -2 137 18 137
19 0 20 6 20 200 l0 200 120 0 c110 0 120 2 120 18 0 10 3 22 7 26 4 3 72 5
152 4 143 -3 146 -3 149 -25z"/>
<path d="M590 1205 c0 -68 2 -75 20 -75 18 0 20 7 20 75 0 68 -2 75 -20 75
-18 0 -20 -7 -20 -75z"/>
<path d="M1130 1180 c0 -44 4 -60 14 -60 8 0 16 17 20 46 9 68 8 74 -14 74
-18 0 -20 -7 -20 -60z"/>
<path d="M1400 1180 c0 -53 2 -60 20 -60 18 0 20 7 20 60 0 53 -2 60 -20 60
-18 0 -20 -7 -20 -60z"/>
<path d="M590 850 c0 -73 2 -80 20 -80 18 0 20 7 20 80 0 73 -2 80 -20 80 -18
0 -20 -7 -20 -80z"/>
</g>
</svg>
